<?xml version="1.0" standalone="no"?>
<!DOCTYPE svg PUBLIC "-//W3C//DTD SVG 20010904//EN"
 "http://www.w3.org/TR/2001/REC-SVG-20010904/DTD/svg10.dtd">
<svg version="1.0" xmlns="http://www.w3.org/2000/svg"
 width="476.000000pt" height="526.000000pt" viewBox="0 0 476.000000 526.000000"
 preserveAspectRatio="xMidYMid meet">

<g transform="translate(0.000000,526.000000) scale(0.100000,-0.100000)"
fill="#000000" stroke="none">
<path d="M754 4808 c-68 -132 -124 -438 -124 -678 0 -140 22 -365 50 -508 39
-200 143 -502 202 -584 l20 -29 -76 -79 c-41 -44 -96 -107 -120 -140 -62 -85
-165 -298 -224 -465 -44 -123 -57 -164 -87 -264 l-7 -23 91 7 c60 5 91 4 91
-3 0 -12 -26 -44 -128 -161 -41 -46 -70 -87 -65 -91 4 -4 35 -17 68 -29 81
-30 295 -126 375 -169 305 -163 666 -423 825 -595 81 -87 94 -104 186 -257
108 -178 227 -274 417 -339 200 -68 482 42 637 247 28 37 63 92 79 122 90 175
280 356 621 595 224 156 474 290 732 390 57 22 103 43 103 46 0 6 -115 140
-177 206 l-30 32 86 3 c50 2 85 7 84 13 -7 35 -93 267 -132 355 l-46 105 -165
5 c-91 3 -172 9 -180 14 -8 6 -53 40 -100 76 -215 168 -341 260 -353 260 -8 0
-45 -17 -83 -38 -55 -30 -70 -43 -72 -64 -4 -33 -45 -75 -82 -83 -55 -12 -130
49 -130 106 0 36 51 95 89 104 17 3 45 -1 69 -10 l40 -17 51 38 51 38 -37 38
c-45 47 -66 54 -95 34 -63 -44 -168 11 -168 89 0 55 52 105 110 105 57 0 110
-50 110 -103 0 -40 2 -42 47 -52 l32 -6 0 298 c1 164 -3 304 -8 312 -7 11 -26
2 -91 -43 -46 -31 -85 -55 -87 -52 -11 10 30 171 62 248 80 189 250 424 402
553 71 60 203 155 216 155 10 0 27 -65 47 -183 15 -90 20 -164 20 -302 l0
-182 -27 -36 c-16 -20 -59 -75 -97 -122 -37 -48 -66 -88 -64 -90 2 -2 35 18
73 45 39 27 73 49 78 50 14 0 7 -48 -18 -124 -38 -115 -70 -172 -118 -207 -34
-25 -147 -88 -191 -108 -5 -2 -7 36 -4 88 5 90 7 93 66 196 33 58 59 105 57
105 -2 0 -24 -9 -50 -20 -26 -11 -49 -20 -51 -20 -11 0 -1 30 26 84 29 56 70
175 70 200 0 6 -12 -5 -27 -24 -48 -61 -135 -149 -154 -155 -18 -6 -19 -22
-19 -329 0 -414 -1 -406 64 -454 28 -20 85 -64 127 -97 42 -33 116 -89 165
-125 l88 -64 118 -4 c87 -3 118 -1 118 7 0 26 -96 154 -206 274 l-72 78 52
102 c115 227 189 526 217 867 10 134 10 177 -5 320 -18 180 -41 302 -80 425
-45 141 -59 147 -204 91 -372 -144 -839 -500 -1086 -828 -23 -31 -35 -38 -62
-38 l-34 0 0 -323 0 -323 30 -34 c16 -19 29 -40 30 -47 0 -16 -38 -42 -81 -53
-21 -6 -64 -35 -103 -71 l-66 -61 0 -329 c0 -193 4 -329 9 -329 19 0 51 -68
51 -109 0 -53 -21 -85 -70 -105 -44 -17 -82 -10 -130 24 -50 35 -50 130 0 175
19 17 20 33 20 369 l0 352 95 92 95 91 -2 358 -3 358 -135 3 c-118 3 -180 -2
-330 -25 -34 -5 -37 -2 -117 94 -263 318 -648 605 -1016 758 -111 45 -151 46
-173 3z m228 -341 c238 -165 456 -446 559 -722 24 -66 59 -195 53 -195 -3 0
-24 13 -47 29 -23 15 -85 50 -137 76 -150 75 -199 112 -264 198 -20 27 -36 42
-36 33 0 -28 49 -147 85 -206 33 -54 42 -80 30 -80 -3 0 -28 11 -55 25 -77 39
-78 35 -10 -58 57 -80 85 -147 95 -236 l7 -64 -28 7 c-16 3 -75 29 -131 56
l-103 51 -35 74 c-38 79 -89 258 -75 263 5 2 34 -15 65 -38 30 -22 55 -35 55
-28 0 7 -26 56 -58 108 -33 52 -64 112 -71 133 -24 72 -14 342 20 527 17 95
14 93 81 47z m2018 -726 c57 -53 59 -66 18 -124 -19 -26 -19 -37 -10 -200 5
-95 6 -178 3 -185 -4 -7 -45 -45 -91 -85 -126 -109 -123 -102 -121 -274 l1
-83 31 0 c49 0 106 -38 129 -85 25 -52 25 -78 -1 -132 -54 -112 -221 -107
-275 7 -21 43 -22 54 -15 215 5 131 4 175 -6 190 -39 59 -5 114 137 226 l80
63 0 157 c0 120 -4 163 -15 185 -28 53 -20 92 27 135 24 22 46 39 49 39 4 0
30 -22 59 -49z m464 -1143 c-4 -7 -21 -33 -39 -58 -17 -25 -67 -105 -111 -179
-101 -170 -180 -257 -276 -306 -76 -38 -93 -38 -62 -2 50 56 144 237 123 237
-5 0 -36 -19 -67 -42 -208 -153 -302 -321 -347 -622 -10 -63 -16 -34 -16 75 0
126 20 233 60 331 62 150 77 186 92 209 17 25 150 104 354 209 176 91 264 140
270 151 9 14 27 11 19 -3z m-1889 -207 c72 -27 168 -65 215 -84 237 -99 213
-82 267 -195 45 -95 73 -242 73 -377 0 -110 -13 -146 -25 -68 -18 119 -67 270
-120 372 -32 61 -43 73 -93 99 -95 51 -242 111 -242 100 0 -14 54 -102 92
-150 75 -96 -89 6 -182 113 -36 40 -93 101 -127 135 l-62 61 22 21 c12 12 28
22 37 22 8 0 74 -22 145 -49z m-268 -383 c189 -96 341 -152 468 -174 64 -10
133 -35 160 -56 79 -62 118 -177 140 -416 22 -234 29 -259 80 -308 24 -22 60
-49 79 -59 61 -33 38 -49 -29 -21 -19 8 -37 11 -40 7 -7 -13 25 -101 52 -143
14 -20 51 -60 84 -88 49 -43 60 -57 57 -79 -7 -64 -152 -86 -251 -37 -103 50
-163 131 -207 276 -59 200 -91 279 -156 384 -39 63 -87 126 -96 126 -2 0 2
-37 8 -82 23 -153 26 -151 -78 -45 -194 194 -509 403 -790 521 -37 16 -66 32
-63 36 2 3 32 18 67 33 35 14 81 34 103 44 l40 18 -95 5 -95 5 45 43 c79 74
162 103 282 98 62 -3 81 -10 235 -88z m2710 78 c4 -4 -2 -23 -12 -43 -15 -27
-35 -44 -80 -65 -33 -15 -66 -28 -72 -28 -30 0 -10 -20 30 -30 64 -17 108 -31
157 -52 l45 -19 -120 -49 c-282 -114 -529 -277 -764 -504 l-104 -101 7 70 c4
39 10 90 13 115 l5 45 -25 -30 c-72 -84 -148 -251 -202 -443 -51 -180 -110
-268 -210 -317 -74 -37 -175 -39 -228 -6 -56 34 -50 58 30 127 80 67 97 88
124 149 28 63 22 73 -40 67 -28 -2 -51 -2 -51 1 0 3 21 16 46 28 25 13 62 42
83 64 44 48 61 117 61 246 0 100 24 252 51 324 24 66 85 137 139 165 20 10 65
26 99 35 155 40 382 128 495 191 129 72 144 75 339 71 98 -3 181 -7 184 -11z"/>
<path d="M2765 2695 c-29 -28 -31 -54 -10 -95 28 -54 102 -52 135 3 26 42 26
43 -14 83 -41 41 -77 44 -111 9z"/>
<path d="M3140 3106 c0 -10 9 -16 21 -16 24 0 21 23 -4 28 -10 2 -17 -3 -17
-12z"/>
<path d="M2360 2284 c-19 -22 -1 -68 27 -72 50 -7 83 44 51 76 -17 17 -63 15
-78 -4z"/>
</g>
</svg>
